<svg id="Layer_1" data-name="Layer 1" xmlns="http://www.w3.org/2000/svg" viewBox="0 0 20 20"><defs><style>.cls-1{fill:#00d8e2;}</style></defs><path class="cls-1" d="M10,1A8.27,8.27,0,0,0,8.38,17.38L10,19l1.62-1.62A8.27,8.27,0,0,0,10,1Zm5,7.3a1.38,1.38,0,1,0,0,2.76v1.39h-2.9v-1h-.5v1H5V11.06A1.38,1.38,0,1,0,5,8.3V6.91h6.67v1h.5v-1H15Z"/><polygon class="cls-1" points="9.46 9.09 8.99 7.92 8.52 9.09 7.23 9.17 8.22 9.97 7.9 11.19 8.99 10.51 10.08 11.19 9.76 9.97 10.75 9.17 9.46 9.09"/><rect class="cls-1" x="11.63" y="9.93" width="0.5" height="1.01"/><rect class="cls-1" x="11.63" y="8.42" width="0.5" height="1.01"/></svg>