<svg id="Layer_1" data-name="Layer 1" xmlns="http://www.w3.org/2000/svg" viewBox="0 0 100 100"><defs><style>.cls-1{fill:#00d8e2;}</style></defs><path class="cls-1" d="M50,7.5a42.5,42.5,0,0,0-8.32,84.18L50,100l8.32-8.32A42.5,42.5,0,0,0,50,7.5ZM75.84,45a7.12,7.12,0,0,0,0,14.23v7.11H61V61.16H58.38v5.17H24.12V59.22a7.12,7.12,0,0,0,0-14.23V37.88H58.38v5.17H61V37.88H75.84Z"/><polygon class="cls-1" points="47.23 49.08 44.81 43.05 42.38 49.08 35.76 49.48 40.87 53.6 39.21 59.86 44.81 56.39 50.4 59.86 48.75 53.6 53.86 49.48 47.23 49.08"/><rect class="cls-1" x="58.38" y="53.4" width="2.59" height="5.17"/><rect class="cls-1" x="58.38" y="45.64" width="2.59" height="5.17"/></svg>