<svg id="Layer_1" data-name="Layer 1" xmlns="http://www.w3.org/2000/svg" viewBox="0 0 100 100"><defs><style>.cls-1{fill:none;stroke:#fff;stroke-linecap:round;stroke-linejoin:round;stroke-width:4px;}.cls-2{fill:#00d8e2;}.cls-3{fill:#fff;}</style></defs><path class="cls-1" d="M50,3.5a42.5,42.5,0,0,0-8.32,84.18L50,98l8.32-10.32A42.5,42.5,0,0,0,50,3.5Z"/><path class="cls-2" d="M50,3.5a42.5,42.5,0,0,0-8.32,84.18L50,98l8.32-10.32A42.5,42.5,0,0,0,50,3.5Z"/><path class="cls-3" d="M75.84,41V33.88H61v5.17H58.38V33.88H24.12V41a7.12,7.12,0,0,1,0,14.23v7.11H58.38V57.16H61v5.17H75.84V55.22a7.12,7.12,0,0,1,0-14.23ZM50.4,55.86l-5.59-3.47-5.6,3.47,1.66-6.26-5.11-4.12,6.62-.41,2.43-6,2.42,6,6.63.41L48.75,49.6ZM61,54.57H58.38V49.4H61Zm0-7.76H58.38V41.64H61Z"/></svg>