<svg id="Layer_1" data-name="Layer 1" xmlns="http://www.w3.org/2000/svg" viewBox="0 0 20 20"><defs><style>.cls-1{fill:#00d8e2;}</style></defs><path class="cls-1" d="M10,1A8.27,8.27,0,0,0,8.38,17.39L10,19l1.62-1.62A8.27,8.27,0,0,0,10,1Zm2.68,2.71a1.08,1.08,0,1,1-1.07,1.07A1.07,1.07,0,0,1,12.68,3.72ZM15.2,7,13.58,8.56a.51.51,0,0,1-.39.14.53.53,0,0,1-.4-.14L12,7.73l-1.8,1.8,1,1a.74.74,0,0,1,.21.65l-.53,3.05a.74.74,0,0,1-.72.61H10A.7.7,0,0,1,9.46,14l.46-2.72L8.74,10.1,7.81,11a.71.71,0,0,1-.51.22H4.08a.72.72,0,1,1,0-1.44H7l3.44-3.44H9.35L7.7,8A.53.53,0,0,1,7,7.27l1.79-1.8a.77.77,0,0,1,.39-.14h1.8a.57.57,0,0,1,.39.14l1.94,1.94,1.22-1.22a.53.53,0,0,1,.75,0h0A.57.57,0,0,1,15.2,7Z"/></svg>