<svg id="Layer_1" data-name="Layer 1" xmlns="http://www.w3.org/2000/svg" viewBox="0 0 100 100"><defs><style>.cls-1{fill:none;stroke:#fff;stroke-linecap:round;stroke-linejoin:round;stroke-width:4px;}.cls-2{fill:#495d6b;}.cls-3{fill:#fff;}</style></defs><path class="cls-1" d="M50,3.5a42.5,42.5,0,0,0-8.32,84.18L50,98l8.32-10.32A42.5,42.5,0,0,0,50,3.5Z"/><path class="cls-2" d="M50,3.5a42.5,42.5,0,0,0-8.32,84.18L50,98l8.32-10.32A42.5,42.5,0,0,0,50,3.5Z"/><path class="cls-3" d="M63.8,17.43A5.53,5.53,0,1,1,58.27,23,5.53,5.53,0,0,1,63.8,17.43ZM76.71,34l-8.3,8.3a3.19,3.19,0,0,1-4.06,0l-4.24-4.24L50.9,47.29l5.16,5.16a3.88,3.88,0,0,1,1.1,3.32L54.4,71.44a3.76,3.76,0,0,1-3.69,3.13h-.55a3.59,3.59,0,0,1-2.95-4.24l2.4-14-6.09-6.08L38.73,55a3.64,3.64,0,0,1-2.58,1.11H19.56a3.69,3.69,0,1,1,0-7.38H34.68L52.37,31.07H46.65l-8.48,8.48a2.74,2.74,0,0,1-3.87-3.87l9.22-9.22a3.85,3.85,0,0,1,2-.74h9.22a2.8,2.8,0,0,1,2,.74l10,9.95L73,30.15a2.67,2.67,0,0,1,3.87,0h0A2.85,2.85,0,0,1,76.71,34Z"/></svg>