<svg id="Layer_1" data-name="Layer 1" xmlns="http://www.w3.org/2000/svg" viewBox="0 0 100 100"><defs><style>.cls-1{fill:#00d8e2;}</style></defs><path class="cls-1" d="M50,7.5a42.5,42.5,0,0,0-8.32,84.18L50,100l8.32-8.32A42.5,42.5,0,0,0,50,7.5Zm-.23,39a9.05,9.05,0,0,1-3.7,3.32,2.55,2.55,0,0,0-1.41,2.3V78a2.6,2.6,0,0,1-5.19,0V52.1a2.51,2.51,0,0,0-1.41-2.31A9,9,0,0,1,33,41.68L34.72,21h1.73V39.77a1.94,1.94,0,0,0,3.88,0L41.2,21h1.73l.86,18.82a1.95,1.95,0,0,0,3.89,0V21h1.73L51.14,41.7A9.09,9.09,0,0,1,49.77,46.48ZM67,78.23a2.6,2.6,0,0,1-5.19,0V58.57L59.3,57.9h0a2.61,2.61,0,0,1-1.92-2.51V30.33A9.55,9.55,0,0,1,59,25a9.62,9.62,0,0,1,8-4.26Z"/></svg>