<svg id="Layer_1" data-name="Layer 1" xmlns="http://www.w3.org/2000/svg" viewBox="0 0 20 20"><defs><style>.cls-1{fill:#00d8e2;}</style></defs><path class="cls-1" d="M10,1A8.27,8.27,0,0,0,8.38,17.39L10,19l1.62-1.62A8.27,8.27,0,0,0,10,1ZM10,8.59a1.74,1.74,0,0,1-.72.65A.51.51,0,0,0,9,9.68v5a.5.5,0,0,1-.5.48A.51.51,0,0,1,8,14.72v-5a.48.48,0,0,0-.27-.44A1.74,1.74,0,0,1,7,8.59a1.71,1.71,0,0,1-.27-.93l.34-4h.33V7.29a.38.38,0,0,0,.76,0l.17-3.67h.33l.17,3.67a.38.38,0,0,0,.76,0V3.62h.34l.33,4A1.71,1.71,0,0,1,10,8.59Zm3.36,6.18a.5.5,0,0,1-.5.48.51.51,0,0,1-.51-.48V10.94l-.49-.13h0a.5.5,0,0,1-.37-.48V5.45a1.88,1.88,0,0,1,.32-1,1.81,1.81,0,0,1,.85-.69,2.08,2.08,0,0,1,.7-.14Z"/></svg>