<svg id="Layer_1" data-name="Layer 1" xmlns="http://www.w3.org/2000/svg" viewBox="0 0 100 100"><defs><style>.cls-1{fill:none;stroke:#fff;stroke-linecap:round;stroke-linejoin:round;stroke-width:4px;}.cls-2{fill:#495d6b;}.cls-3{fill:#fff;}</style></defs><path class="cls-1" d="M50,3.5a42.5,42.5,0,0,0-8.32,84.18L50,98l8.32-10.32A42.5,42.5,0,0,0,50,3.5Z"/><path class="cls-2" d="M50,3.5a42.5,42.5,0,0,0-8.32,84.18L50,98l8.32-10.32A42.5,42.5,0,0,0,50,3.5Z"/><path class="cls-3" d="M75.67,71.6h-53a3.26,3.26,0,0,1,0-6.52h53a3.26,3.26,0,1,1,0,6.52ZM26.94,54.46H38.37V43a3.27,3.27,0,0,1,6.54,0v14.7A3.26,3.26,0,0,1,41.63,61H26.94a3.27,3.27,0,1,1,0-6.53Zm-2.86-8.37a6.12,6.12,0,1,1,6.12,6.13A6.12,6.12,0,0,1,24.08,46.09ZM47.14,61V46.09h17c5.62,0,10.11,1.23,10.11,7.45V61ZM81.26,30.71a3.27,3.27,0,0,1-3.05,2.1h0A3.23,3.23,0,0,1,77,32.59L49.18,21.89,21.32,32.59A3.27,3.27,0,0,1,19,26.49L48,15.35a3.26,3.26,0,0,1,2.34,0l29,11.14A3.27,3.27,0,0,1,81.26,30.71Z"/></svg>