<svg id="Layer_1" data-name="Layer 1" xmlns="http://www.w3.org/2000/svg" viewBox="0 0 100 100"><defs><style>.cls-1{fill:#00d8e2;}</style></defs><path class="cls-1" d="M50,7.5a42.5,42.5,0,0,0-8.32,84.18L50,100l8.32-8.32A42.5,42.5,0,0,0,50,7.5ZM70.09,69.65H28.28a2.58,2.58,0,1,1,0-5.15H70.09a2.58,2.58,0,0,1,0,5.15ZM31.63,56.12h9v-9a2.58,2.58,0,0,1,5.16,0V58.7a2.58,2.58,0,0,1-2.58,2.58H31.63a2.58,2.58,0,0,1,0-5.16Zm-2.26-6.6a4.83,4.83,0,1,1,4.83,4.83A4.83,4.83,0,0,1,29.37,49.52Zm18.2,11.76V49.52H61c4.43,0,8,1,8,5.88v5.88ZM74.5,37.38A2.59,2.59,0,0,1,72.09,39h0a2.49,2.49,0,0,1-.92-.17l-22-8.44-22,8.44a2.58,2.58,0,0,1-1.85-4.81l22.91-8.8a2.68,2.68,0,0,1,1.85,0L73,34.05A2.58,2.58,0,0,1,74.5,37.38Z"/></svg>