<svg id="Layer_1" data-name="Layer 1" xmlns="http://www.w3.org/2000/svg" viewBox="0 0 20 20"><defs><style>.cls-1{fill:#00d8e2;}</style></defs><path class="cls-1" d="M10,1A8.27,8.27,0,0,0,8.38,17.39L10,19l1.62-1.62A8.27,8.27,0,0,0,10,1ZM13.91,13.1H5.77a.5.5,0,1,1,0-1h8.14a.5.5,0,0,1,0,1ZM6.42,10.47H8.18V8.71a.5.5,0,0,1,1,0V11a.5.5,0,0,1-.5.5H6.42a.5.5,0,0,1,0-1ZM6,9.18a.94.94,0,1,1,.94.94A.94.94,0,0,1,6,9.18Zm3.54,2.29V9.18h2.61c.87,0,1.56.19,1.56,1.15v1.14Zm5.24-4.65a.51.51,0,0,1-.47.32h0l-.18,0L9.84,5.47,5.56,7.11a.5.5,0,0,1-.65-.29.51.51,0,0,1,.29-.65L9.66,4.46a.55.55,0,0,1,.36,0l4.46,1.71A.5.5,0,0,1,14.77,6.82Z"/></svg>