<svg id="Layer_1" data-name="Layer 1" xmlns="http://www.w3.org/2000/svg" viewBox="0 0 100 100"><defs><style>.cls-1{fill:none;stroke:#fff;stroke-linecap:round;stroke-linejoin:round;stroke-width:4px;}.cls-2{fill:#00d8e2;}.cls-3{fill:#fff;}</style></defs><path class="cls-1" d="M50,3.5a42.5,42.5,0,0,0-8.32,84.18L50,98l8.32-10.32A42.5,42.5,0,0,0,50,3.5Z"/><path class="cls-2" d="M50,3.5a42.5,42.5,0,0,0-8.32,84.18L50,98l8.32-10.32A42.5,42.5,0,0,0,50,3.5Z"/><path class="cls-3" d="M65.44,31.29a15.55,15.55,0,0,0-30.88,0H27.15v37.2h45.7V31.29Zm-27.85,0a12.54,12.54,0,0,1,24.82,0Z"/></svg>