<svg id="Layer_1" data-name="Layer 1" xmlns="http://www.w3.org/2000/svg" viewBox="0 0 100 100"><defs><style>.cls-1{fill:none;stroke:#fff;stroke-linecap:round;stroke-linejoin:round;stroke-width:4px;}.cls-2{fill:#495d6b;}.cls-3{fill:#fff;}</style></defs><path class="cls-1" d="M50,3.5a42.5,42.5,0,0,0-8.32,84.18L50,98l8.32-10.32A42.5,42.5,0,0,0,50,3.5Z"/><path class="cls-2" d="M50,3.5a42.5,42.5,0,0,0-8.32,84.18L50,98l8.32-10.32A42.5,42.5,0,0,0,50,3.5Z"/><path class="cls-3" d="M72.6,70.58H27.4V46.87h4V66.58H42.93V45.32a11.1,11.1,0,0,0,1.18-.74h.18A9.71,9.71,0,0,0,50,46.47a9.83,9.83,0,0,0,5.79-1.89H56a12.48,12.48,0,0,0,1.09.69V66.58H68.6V46.87h4Zm.8-28.11a5.92,5.92,0,0,1-5.85-5.85,5.81,5.81,0,0,1-5.85,5.85,5.92,5.92,0,0,1-5.85-5.85A5.81,5.81,0,0,1,50,42.47a5.92,5.92,0,0,1-5.85-5.85,5.82,5.82,0,0,1-5.85,5.85,5.92,5.92,0,0,1-5.85-5.85,5.81,5.81,0,0,1-5.85,5.85,5.92,5.92,0,0,1-5.85-5.85L30,22.42h40.1l9.18,14.21h0A5.81,5.81,0,0,1,73.4,42.47Z"/></svg>