<svg id="Layer_1" data-name="Layer 1" xmlns="http://www.w3.org/2000/svg" viewBox="0 0 100 100"><defs><style>.cls-1{fill:#495d6b;}.cls-2{fill:#fff;fill-rule:evenodd;}</style></defs><polygon class="cls-1" points="92.5 0 7.5 0 7.5 85 35 85 50 100 65 85 92.5 85 92.5 0"/><g id="Page-3"><g id="_10Exchange-Logo" data-name="10Exchange-Logo"><polyline id="Fill-3" class="cls-2" points="18.17 17.63 27.34 17.63 27.34 68.03 18.19 68.03 18.19 17.87"/><path id="Fill-4" class="cls-2" d="M61.77,15.41c17.73,0,24.06,15.06,24.06,27.42S79.5,70.25,61.77,70.25,37.71,55.19,37.71,42.83,44,15.41,61.77,15.41m0,48.34c6.62,0,14.9-4.12,14.9-20.92s-8.28-20.92-14.9-20.92S46.87,26,46.87,42.83s8.28,20.92,14.9,20.92"/></g></g></svg>