<svg id="Layer_1" data-name="Layer 1" xmlns="http://www.w3.org/2000/svg" viewBox="0 0 100 100"><defs><style>.cls-1{fill:none;stroke:#fff;stroke-linecap:round;stroke-linejoin:round;stroke-width:4px;}.cls-2{fill:#495d6b;}.cls-3{fill:#fff;fill-rule:evenodd;}</style></defs><path class="cls-1" d="M50,3.5a42.5,42.5,0,0,0-8.32,84.18L50,98l8.32-10.32A42.5,42.5,0,0,0,50,3.5Z"/><path class="cls-2" d="M50,3.5a42.5,42.5,0,0,0-8.32,84.18L50,98l8.32-10.32A42.5,42.5,0,0,0,50,3.5Z"/><g id="Page-3"><g id="_10Exchange-Logo" data-name="10Exchange-Logo"><polyline id="Fill-3" class="cls-3" points="40.32 41.2 42.88 41.2 42.88 55.28 40.32 55.28 40.32 41.27"/><path id="Fill-4" class="cls-3" d="M52.5,40.58c5,0,6.72,4.21,6.72,7.66S57.45,55.9,52.5,55.9s-6.72-4.2-6.72-7.66,1.77-7.66,6.72-7.66m0,13.51c1.85,0,4.16-1.15,4.16-5.85S54.35,42.4,52.5,42.4s-4.16,1.15-4.16,5.84,2.31,5.85,4.16,5.85"/><polygon id="Fill-5" class="cls-3" points="28.13 66 22.52 58.83 25.44 58.83 29.59 64.19 33.73 58.83 36.65 58.83 31.05 66 37.25 73.93 34.3 73.93 29.59 67.76 24.87 73.93 21.92 73.93 28.13 66"/><polygon id="Fill-6" class="cls-3" points="16.3 59.08 21.86 59.08 21.86 59.82 17.34 59.82 17.34 61.81 21.27 61.81 21.27 62.55 17.34 62.55 17.34 64.78 21.97 64.78 21.97 65.52 16.3 65.52 16.3 59.08"/><path id="Fill-7" class="cls-3" d="M43.48,61.07A2.5,2.5,0,0,0,41,59.61,2.7,2.7,0,1,0,41,65a2.43,2.43,0,0,0,2.59-1.91l1.1.11A3.61,3.61,0,0,1,41,65.68c-2.47,0-4-1.37-4-3.38s1.51-3.38,4-3.38c1.7,0,3.12.67,3.59,2Z"/><polygon id="Fill-8" class="cls-3" points="45.9 59.08 46.94 59.08 46.94 61.81 51.3 61.81 51.3 59.08 52.35 59.08 52.35 65.52 51.3 65.52 51.3 62.55 46.94 62.55 46.94 65.52 45.9 65.52 45.9 59.08"/><path id="Fill-9" class="cls-3" d="M56.26,59.08h1.12l2.87,6.44H59.12l-.84-2h-3l-.91,2H53.24Zm.56,1.06h0l-1.21,2.67H58Z"/><polygon id="Fill-10" class="cls-3" points="61.13 59.08 62.19 59.08 66.39 64.16 66.41 64.16 66.41 59.08 67.39 59.08 67.39 65.52 66.34 65.52 62.13 60.45 62.11 60.45 62.11 65.52 61.13 65.52 61.13 59.08"/><path id="Fill-11" class="cls-3" d="M75.54,64.63h0a3.51,3.51,0,0,1-2.82,1.05c-2.47,0-4-1.37-4-3.38,0-1.65,1.43-3.38,4-3.38a3.88,3.88,0,0,1,3.72,1.9l-1,.22c-.34-.81-1.16-1.38-2.67-1.38a2.64,2.64,0,0,0-2.85,2.59,2.59,2.59,0,0,0,2.85,2.69c1.66,0,2.82-.69,2.82-2.07H72.78v-.74h3.67v3.44h-.91Z"/><polygon id="Fill-12" class="cls-3" points="78.03 59.08 83.59 59.08 83.59 59.82 79.08 59.82 79.08 61.81 83 61.81 83 62.55 79.08 62.55 79.08 64.78 83.7 64.78 83.7 65.52 78.03 65.52 78.03 59.08"/><path id="Fill-13" class="cls-3" d="M37.94,67.42h4A1.85,1.85,0,0,1,44,69.28a2,2,0,0,1-2.16,1.83H39v2.75H37.94Zm1.05,3h2.42c.9,0,1.52-.32,1.52-1.1s-.4-1.11-1.37-1.11H39Z"/><polygon id="Fill-14" class="cls-3" points="44.95 67.42 45.99 67.42 45.99 73.12 49.95 73.12 49.95 73.86 44.95 73.86 44.95 67.42"/><path id="Fill-15" class="cls-3" d="M53.47,67.42h1.11l2.87,6.44H56.33l-.85-2h-3l-.91,2H50.44ZM54,68.48h0l-1.2,2.67h2.36Z"/><path id="Fill-16" class="cls-3" d="M64.58,69.41A2.51,2.51,0,0,0,62.08,68a2.7,2.7,0,1,0,0,5.39,2.43,2.43,0,0,0,2.59-1.91l1.1.11A3.62,3.62,0,0,1,62.08,74c-2.47,0-4-1.38-4-3.39s1.51-3.38,4-3.38c1.7,0,3.12.67,3.59,2Z"/><polygon id="Fill-17" class="cls-3" points="67 67.42 72.56 67.42 72.56 68.17 68.04 68.17 68.04 70.16 71.97 70.16 71.97 70.9 68.04 70.9 68.04 73.12 72.67 73.12 72.67 73.86 67 73.86 67 67.42"/><path id="Fill-18" class="cls-3" d="M42.31,20.88a27.46,27.46,0,0,1,14.31,0v1.24a25.91,25.91,0,0,0-14.31,0Z"/><path id="Fill-19" class="cls-3" d="M42.31,18.58a27.46,27.46,0,0,1,14.31,0v1.25s-7.34-2.18-14.31,0Z"/><path id="Fill-20" class="cls-3" d="M42.31,16.29a27.34,27.34,0,0,1,14.31,0v1.24s-7.34-2.18-14.31,0Z"/><path id="Fill-21" class="cls-3" d="M40.74,23.94s8.65-3.22,17.45,0V25.1a31.38,31.38,0,0,0-17.45,0Z"/><path id="Fill-22" class="cls-3" d="M40.74,27.1s8.65-3.22,17.45,0v1.16a31.38,31.38,0,0,0-17.45,0Z"/><path id="Fill-23" class="cls-3" d="M40.74,30.69s8.65-3.22,17.45,0v1.16a31.38,31.38,0,0,0-17.45,0Z"/><path id="Fill-24" class="cls-3" d="M40.74,33.86a38.07,38.07,0,0,1,17.45,0V35a45.35,45.35,0,0,0-17.45,0Z"/><path id="Fill-25" class="cls-3" d="M40.74,37.63a37.91,37.91,0,0,1,17.45,0v1.16a45.35,45.35,0,0,0-17.45,0Z"/><polygon id="Fill-26" class="cls-3" points="48.92 21.16 50.18 21.16 50.18 8.34 48.92 8.34 48.92 21.16"/></g></g></svg>