<svg id="Layer_1" data-name="Layer 1" xmlns="http://www.w3.org/2000/svg" viewBox="0 0 100 100"><defs><style>.cls-1{fill:none;stroke:#fff;stroke-linecap:round;stroke-linejoin:round;stroke-width:4px;}.cls-2{fill:#495d6b;}.cls-3{fill:#fff;}</style></defs><path class="cls-1" d="M50,3.5a42.5,42.5,0,0,0-8.32,84.18L50,98l8.32-10.32A42.5,42.5,0,0,0,50,3.5Z"/><path class="cls-2" d="M50,3.5a42.5,42.5,0,0,0-8.32,84.18L50,98l8.32-10.32A42.5,42.5,0,0,0,50,3.5Z"/><path class="cls-3" d="M37.5,20.33A6,6,0,1,1,42.85,27,6,6,0,0,1,37.5,20.33ZM38.63,60,33.51,70.86a3.33,3.33,0,0,1-3,1.89,2.69,2.69,0,0,1-1.4-.31,3.21,3.21,0,0,1-1.59-4.33l5.06-10.85a8,8,0,0,0,.73-2.38l.67-4.2.13.12c.3.31,2.43,2.38,4.51,4.33.42.37.79.73,1.15,1.1A14.45,14.45,0,0,1,38.63,60Zm14,12.73a1.69,1.69,0,0,1-.79.13,3.32,3.32,0,0,1-3.17-2.5L46.24,60.19a6.09,6.09,0,0,0-1.7-3S36.61,49.46,36,48.85c-1.77-1.71-1.16-3.66-.85-6.4.12-1.34.37-3.6.61-5.55a16.09,16.09,0,0,0-3.6,4.45l-1.34,2.44a2.62,2.62,0,0,1-2.37,1.4,3.57,3.57,0,0,1-1.34-.3A2.73,2.73,0,0,1,26,41.17l1.34-2.44a21.85,21.85,0,0,1,9-9c2.13-1.16,3.17-1.52,4.08-1.46l4.51.3c1.34.07,2.32.61,6.22,5.67a17.07,17.07,0,0,0,4.08,3.78L58,39.89a2.73,2.73,0,1,1-3,4.57l-2.8-1.83A20.9,20.9,0,0,1,47,37.94L44.9,48.3l4.27,4.15a12.85,12.85,0,0,1,3.47,6.15l2.44,10.18A3.28,3.28,0,0,1,52.64,72.74ZM75.38,60.07a2.12,2.12,0,0,1-1.52.61,2.16,2.16,0,0,1-1.53-.61,2.07,2.07,0,0,1,0-3L74.47,55H58.13a2.14,2.14,0,0,1,0-4.27h16.4L72.4,48.55a2.11,2.11,0,0,1,3-3l5.79,5.79h0a2.09,2.09,0,0,1,0,2.93Z"/></svg>