<svg id="Layer_1" data-name="Layer 1" xmlns="http://www.w3.org/2000/svg" viewBox="0 0 100 100"><defs><style>.cls-1{fill:#00d8e2;}</style></defs><path class="cls-1" d="M50,7.5a42.5,42.5,0,0,0-8.32,84.18L50,100l8.32-8.32A42.5,42.5,0,0,0,50,7.5ZM72.6,74.58H27.4V50.87h4V70.58H42.93V49.32a11.1,11.1,0,0,0,1.18-.74h.18A9.71,9.71,0,0,0,50,50.47a9.83,9.83,0,0,0,5.79-1.89H56a12.48,12.48,0,0,0,1.09.69V70.58H68.6V50.87h4Zm.8-28.11a5.92,5.92,0,0,1-5.85-5.85,5.81,5.81,0,0,1-5.85,5.85,5.92,5.92,0,0,1-5.85-5.85A5.81,5.81,0,0,1,50,46.47a5.92,5.92,0,0,1-5.85-5.85,5.82,5.82,0,0,1-5.85,5.85,5.92,5.92,0,0,1-5.85-5.85,5.81,5.81,0,0,1-5.85,5.85,5.92,5.92,0,0,1-5.85-5.85L30,26.42h40.1l9.18,14.21h0A5.81,5.81,0,0,1,73.4,46.47Z"/></svg>