<svg id="Layer_1" data-name="Layer 1" xmlns="http://www.w3.org/2000/svg" viewBox="0 0 20 20"><defs><style>.cls-1{fill:#00d8e2;}</style></defs><path class="cls-1" d="M10,1A8.27,8.27,0,0,0,8.38,17.39L10,19l1.62-1.62A8.27,8.27,0,0,0,10,1ZM8.86,3.24a1.17,1.17,0,1,1-1.29,1A1.17,1.17,0,0,1,8.86,3.24ZM7.79,12l-1,2.11a.64.64,0,0,1-.58.37.49.49,0,0,1-.27-.06.62.62,0,0,1-.31-.84l1-2.11A1.53,1.53,0,0,0,6.75,11l.14-.82,0,0h0c.06.06.47.46.88.84.08.07.15.15.22.22A2.78,2.78,0,0,1,7.79,12Zm2.72,2.48a.36.36,0,0,1-.15,0A.65.65,0,0,1,9.74,14l-.47-2a1.2,1.2,0,0,0-.33-.58S7.39,10,7.28,9.83c-.35-.33-.23-.71-.17-1.24,0-.27.07-.7.12-1.08a3,3,0,0,0-.7.86l-.26.48a.53.53,0,0,1-.46.27.58.58,0,0,1-.26-.06.52.52,0,0,1-.22-.72l.26-.48A4.25,4.25,0,0,1,7.34,6.12a1.53,1.53,0,0,1,.79-.29L9,5.89c.26,0,.45.12,1.21,1.11a3.24,3.24,0,0,0,.79.73l.55.36a.51.51,0,0,1,.15.73A.52.52,0,0,1,11,9l-.55-.36a4.39,4.39,0,0,1-1-.91L9,9.72l.83.81a2.48,2.48,0,0,1,.67,1.2l.48,2A.64.64,0,0,1,10.51,14.48ZM14.94,12a.39.39,0,0,1-.3.12.38.38,0,0,1-.29-.12.39.39,0,0,1,0-.58l.41-.41H11.58a.42.42,0,0,1,0-.83h3.19l-.41-.42a.39.39,0,0,1,0-.58.41.41,0,0,1,.58,0l1.13,1.13h0a.42.42,0,0,1,0,.57Z"/></svg>