<svg id="Layer_1" data-name="Layer 1" xmlns="http://www.w3.org/2000/svg" viewBox="0 0 20 20"><defs><style>.cls-1{fill:#00d8e2;}</style></defs><path class="cls-1" d="M10,1A8.27,8.27,0,0,0,8.38,17.39L10,19l1.62-1.62A8.27,8.27,0,0,0,10,1Zm4.4,13.05H5.6V9.45h.78v3.83H8.62V9.14L8.85,9h0A1.87,1.87,0,0,0,10,9.37,1.93,1.93,0,0,0,11.13,9h0l.22.13v4.15h2.24V9.45h.78Zm.15-5.47a1.15,1.15,0,0,1-1.13-1.14,1.14,1.14,0,0,1-1.14,1.14,1.15,1.15,0,0,1-1.14-1.14A1.13,1.13,0,0,1,10,8.59,1.15,1.15,0,0,1,8.86,7.45,1.13,1.13,0,0,1,7.73,8.59,1.15,1.15,0,0,1,6.59,7.45,1.13,1.13,0,0,1,5.45,8.59,1.15,1.15,0,0,1,4.31,7.45L6.1,4.69h7.8l1.79,2.76h0A1.13,1.13,0,0,1,14.55,8.59Z"/></svg>